<?xml version="1.0" encoding="UTF-8"?><svg id="Layer_2" xmlns="http://www.w3.org/2000/svg" xmlns:xlink="http://www.w3.org/1999/xlink" viewBox="0 0 886.92 250.13"><defs><style>.cls-1{fill:url(#linear-gradient);}.cls-1,.cls-2,.cls-3,.cls-4,.cls-5{stroke-width:0px;}.cls-2{fill:url(#linear-gradient-2);}.cls-3{fill:#3d52e8;}.cls-4{fill:#0d1033;}.cls-5{fill:#00b3d1;}</style><linearGradient id="linear-gradient" x1="12.52" y1="134.76" x2="227.68" y2="134.76" gradientUnits="userSpaceOnUse"><stop offset=".12" stop-color="#00b3d1"/><stop offset=".29" stop-color="#02aed2"/><stop offset=".47" stop-color="#0ba1d5"/><stop offset=".66" stop-color="#188bda"/><stop offset=".86" stop-color="#2c6ce1"/><stop offset="1" stop-color="#3d52e8"/></linearGradient><linearGradient id="linear-gradient-2" x1=".16" y1="115.37" x2="215.86" y2="115.37" gradientUnits="userSpaceOnUse"><stop offset=".07" stop-color="#00b3d1"/><stop offset=".82" stop-color="#3065e3"/><stop offset="1" stop-color="#3d52e8"/></linearGradient></defs><g id="Layer_1-2"><path class="cls-1" d="m211.87,92.2L139.5,19.83c-1.18-1.18-3.06.16-2.35,1.67,4.53,9.57,6.27,20.38,4.77,31.46-1.7,12.52-8.1,23.94-17.04,32.88l-4.43,4.43c-.6.6-.6,1.57,0,2.17l32.61,32.61-47.01,47c-18.15,18.15-18.15,47.59,0,65.74l11.89,11.88c.6.59,1.56.59,2.16,0l91.76-91.76c18.15-18.15,18.15-47.58,0-65.73Z"/><path class="cls-5" d="m105.9,237.8l11.89,11.89c.6.59,1.56.59,2.16,0l91.76-91.76c.06-.06.1-.14.16-.2.02,0,.09.02.09.02,18.23-18.23,18.23-47.79,0-66.02l-30.92-30.35c3.35,5.83,3.13,17.6,2.05,24.73-2.3,15.13-30.19,38.96-29.79,38.63.08-.06-.11.14-.18.21l-.22.12-47.01,47.01c-18.15,18.15-18.15,47.58,0,65.72Z"/><path class="cls-2" d="m13.77,157.93l72.36,72.35c1.18,1.18,3.06-.16,2.35-1.67-4.52-9.57-6.27-20.38-4.76-31.45,1.7-12.52,8.1-23.94,17.04-32.88l4.45-4.45c.59-.59.59-1.55,0-2.14l-32.63-32.63,47.01-47.01c18.15-18.15,18.15-47.58,0-65.72L107.7.45c-.6-.6-1.58-.6-2.18,0L13.77,92.2c-18.15,18.15-18.15,47.58,0,65.73Z"/><path class="cls-3" d="m119.73,12.32L107.86.46c-.61-.61-1.59-.6-2.19,0L13.93,92.2c-.06.06-.1.14-.16.2-.02,0-.09-.02-.09-.02-18.23,18.23-18.23,47.79,0,66.02l30.92,30.35c-3.35-5.83-3.13-17.6-2.05-24.73,2.3-15.13,30.19-38.96,29.79-38.63-.08.06.11-.14.18-.21l.22-.12,47.01-47c18.15-18.15,18.15-47.59,0-65.74Z"/><path class="cls-4" d="m838.61,74.36h-1.74l-42.03,87.78c-7.35-.11-13.36-2.33-18.77-7.27,5.23-7.92,8.24-17.74,8.24-29.46,0-32.15-22.49-50.52-50.68-50.52s-50.68,18.37-50.68,50.37,22.49,50.52,50.68,50.52c12.83,0,24.71-3.8,33.58-11.08,6.65,6.97,14.25,10.77,25.02,10.77l12.97-.21,9.5-20.44h46.25l9.66,20.44h16.32l-48.31-100.89Zm-73.47,67.2c-6.02-6.81-13.94-12.2-25.82-12.2l-3.48,12.99c8.24.48,16.16,4.75,21.86,10.61-6.34,6.17-14.73,9.5-24.07,9.5-18.85,0-34.37-13.31-34.37-37.22s15.52-37.22,34.37-37.22,34.37,13.78,34.37,37.38c0,6.02-.95,11.41-2.85,16.16Zm54.78.74l17.74-38.96,18.05,38.96h-35.79Z"/><path class="cls-4" d="m312.45,87.01c-8.56,0-15.69,3.96-15.69,12.04,0,19.65,46.91,13.79,46.91,47.23,0,16.64-13.31,29.16-33.6,29.16-9.83,0-20.92-2.06-32.81-10.78l6.66-12.05c7.61,5.55,17.12,9.67,25.99,9.67,11.89,0,18.22-6.97,18.22-16.01,0-22.34-47.22-16-47.22-46.9,0-15.85,12.99-25.36,30.74-25.36,11.89,0,21.23,4.6,26.94,9.03l-1.11,14.26c-8.72-7.13-16.96-10.3-25.04-10.3Z"/><path class="cls-4" d="m446.76,132.99c0-12.12-5.12-18.09-13.31-18.09s-13.99,6.65-13.99,17.4v41.98h-15.36v-43.01c0-11.94-5.63-16.38-13.65-16.38-7.51,0-13.65,4.78-13.65,17.4v41.98h-15.19v-71.34h15.02v8.02c4.61-7.17,11.27-9.39,17.92-9.39,8.19,0,15.02,3.59,19.8,11.78,3.92-6.83,11.43-11.78,20.82-11.78,15.02,0,27.13,8.87,27.13,30.71v41.98h-15.53v-41.3Z"/><path class="cls-4" d="m516.93,101.92c19.97,0,31.06,9.73,33.45,11.6v60.76h-15.19v-12.28c-3.92,7.17-11.26,13.14-21.84,13.14-21.5,0-32.77-15.71-32.77-36.35s12.97-36.86,36.35-36.86Zm-1.88,59.56c12.29,0,20.14-10.92,20.14-28.84v-12.46c-1.7-1.37-7.16-4.78-17.58-4.78-14.17,0-21.33,11.1-21.33,23.89s5.46,22.18,18.77,22.18Z"/><path class="cls-4" d="m587.94,143.39v30.89h-15.36v-71.34h15.36v10.76c2.39-7.51,10.07-11.94,18.09-11.94,1.53,0,2.56,0,4.09.17-1.03,4.95-1.37,8.88-2.56,13.82h-1.19c-16.21,0-18.43,12.63-18.43,27.65Z"/><path class="cls-4" d="m653.14,175.14c-17.75,0-23.72-8.36-23.72-27.65v-31.74h-12.46l3.41-12.8h9.04v-14.34l15.53-3.41v17.74h17.75v12.8h-17.75v32.08c0,13.31,3.24,15.36,19.12,14.17l-3.07,13.14h-7.85Z"/></g></svg>