<?xml version="1.0" encoding="utf-8"?>
<!-- Generator: Adobe Illustrator 27.9.0, SVG Export Plug-In . SVG Version: 6.00 Build 0)  -->
<svg version="1.1" id="Layer_2_00000098907532528133361070000009453449422894375589_"
	 xmlns="http://www.w3.org/2000/svg" xmlns:xlink="http://www.w3.org/1999/xlink" x="0px" y="0px" viewBox="0 0 886.9 250.1"
	 style="enable-background:new 0 0 886.9 250.1;" xml:space="preserve">
<style type="text/css">
	.st0{fill:url(#SVGID_1_);}
	.st1{fill:#00B3D1;}
	.st2{fill:url(#SVGID_00000036954571396477494080000017478115451041815203_);}
	.st3{fill:#3D52E8;}
	.st4{fill:#FFFFFF;}
</style>
<g id="Layer_1-2">
	
		<linearGradient id="SVGID_1_" gradientUnits="userSpaceOnUse" x1="12.52" y1="117.2542" x2="227.68" y2="117.2542" gradientTransform="matrix(1 0 0 -1 0 252)">
		<stop  offset="0.12" style="stop-color:#00B3D1"/>
		<stop  offset="0.29" style="stop-color:#02AED2"/>
		<stop  offset="0.47" style="stop-color:#0BA1D5"/>
		<stop  offset="0.66" style="stop-color:#188BDA"/>
		<stop  offset="0.86" style="stop-color:#2C6CE1"/>
		<stop  offset="1" style="stop-color:#3D52E8"/>
	</linearGradient>
	<path class="st0" d="M211.9,92.2l-72.4-72.4c-1.2-1.2-3.1,0.2-2.4,1.7c4.5,9.6,6.3,20.4,4.8,31.5c-1.7,12.5-8.1,23.9-17,32.9
		l-4.4,4.4c-0.6,0.6-0.6,1.6,0,2.2l32.6,32.6l-47,47c-18.2,18.1-18.2,47.6,0,65.7l11.9,11.9c0.6,0.6,1.6,0.6,2.2,0l91.8-91.8
		C230,139.8,230,110.3,211.9,92.2L211.9,92.2z"/>
	<path class="st1" d="M105.9,237.8l11.9,11.9c0.6,0.6,1.6,0.6,2.2,0l91.8-91.8c0.1-0.1,0.1-0.1,0.2-0.2c0,0,0.1,0,0.1,0
		c18.2-18.2,18.2-47.8,0-66L181,61.4c3.4,5.8,3.1,17.6,2.1,24.7c-2.3,15.1-30.2,39-29.8,38.6c0.1-0.1-0.1,0.1-0.2,0.2l-0.2,0.1
		l-47,47C87.7,190.2,87.7,219.7,105.9,237.8L105.9,237.8z"/>
	
		<linearGradient id="SVGID_00000137848067896208772570000009205996001931775410_" gradientUnits="userSpaceOnUse" x1="0.1575" y1="136.6345" x2="215.8575" y2="136.6345" gradientTransform="matrix(1 0 0 -1 0 252)">
		<stop  offset="7.000000e-02" style="stop-color:#00B3D1"/>
		<stop  offset="0.82" style="stop-color:#3065E3"/>
		<stop  offset="1" style="stop-color:#3D52E8"/>
	</linearGradient>
	<path style="fill:url(#SVGID_00000137848067896208772570000009205996001931775410_);" d="M13.8,157.9l72.4,72.4
		c1.2,1.2,3.1-0.2,2.3-1.7c-4.5-9.6-6.3-20.4-4.8-31.4c1.7-12.5,8.1-23.9,17-32.9l4.4-4.4c0.6-0.6,0.6-1.6,0-2.1l-32.6-32.6l47-47
		c18.1-18.2,18.1-47.6,0-65.7L107.7,0.4c-0.6-0.6-1.6-0.6-2.2,0L13.8,92.2C-4.4,110.3-4.4,139.8,13.8,157.9z"/>
	<path class="st3" d="M119.7,12.3L107.9,0.5c-0.6-0.6-1.6-0.6-2.2,0L13.9,92.2c-0.1,0.1-0.1,0.1-0.2,0.2c0,0-0.1,0-0.1,0
		c-18.2,18.2-18.2,47.8,0,66l30.9,30.4c-3.3-5.8-3.1-17.6-2-24.7c2.3-15.1,30.2-39,29.8-38.6c-0.1,0.1,0.1-0.1,0.2-0.2l0.2-0.1
		l47-47C137.9,59.9,137.9,30.5,119.7,12.3L119.7,12.3z"/>
	<path class="st4" d="M838.6,74.4h-1.7l-42,87.8c-7.3-0.1-13.4-2.3-18.8-7.3c5.2-7.9,8.2-17.7,8.2-29.5c0-32.2-22.5-50.5-50.7-50.5
		s-50.7,18.4-50.7,50.4s22.5,50.5,50.7,50.5c12.8,0,24.7-3.8,33.6-11.1c6.7,7,14.2,10.8,25,10.8l13-0.2l9.5-20.4h46.2l9.7,20.4h16.3
		L838.6,74.4L838.6,74.4z M765.1,141.6c-6-6.8-13.9-12.2-25.8-12.2l-3.5,13c8.2,0.5,16.2,4.8,21.9,10.6c-6.3,6.2-14.7,9.5-24.1,9.5
		c-18.8,0-34.4-13.3-34.4-37.2S714.8,88,733.6,88s34.4,13.8,34.4,37.4C768,131.4,767,136.8,765.1,141.6L765.1,141.6z M819.9,142.3
		l17.7-39l18,39H819.9z"/>
	<path class="st4" d="M312.5,87c-8.6,0-15.7,4-15.7,12c0,19.7,46.9,13.8,46.9,47.2c0,16.6-13.3,29.2-33.6,29.2
		c-9.8,0-20.9-2.1-32.8-10.8l6.7-12.1c7.6,5.6,17.1,9.7,26,9.7c11.9,0,18.2-7,18.2-16c0-22.3-47.2-16-47.2-46.9
		c0-15.8,13-25.4,30.7-25.4c11.9,0,21.2,4.6,26.9,9l-1.1,14.3C328.8,90.2,320.5,87,312.5,87L312.5,87z"/>
	<path class="st4" d="M446.8,133c0-12.1-5.1-18.1-13.3-18.1s-14,6.7-14,17.4v42h-15.4v-43c0-11.9-5.6-16.4-13.6-16.4
		c-7.5,0-13.6,4.8-13.6,17.4v42h-15.2v-71.3h15v8c4.6-7.2,11.3-9.4,17.9-9.4c8.2,0,15,3.6,19.8,11.8c3.9-6.8,11.4-11.8,20.8-11.8
		c15,0,27.1,8.9,27.1,30.7v42h-15.5L446.8,133L446.8,133z"/>
	<path class="st4" d="M516.9,101.9c20,0,31.1,9.7,33.5,11.6v60.8h-15.2V162c-3.9,7.2-11.3,13.1-21.8,13.1
		c-21.5,0-32.8-15.7-32.8-36.3S493.5,101.9,516.9,101.9L516.9,101.9z M515,161.5c12.3,0,20.1-10.9,20.1-28.8v-12.5
		c-1.7-1.4-7.2-4.8-17.6-4.8c-14.2,0-21.3,11.1-21.3,23.9S501.7,161.5,515,161.5L515,161.5z"/>
	<path class="st4" d="M587.9,143.4v30.9h-15.4v-71.3h15.4v10.8c2.4-7.5,10.1-11.9,18.1-11.9c1.5,0,2.6,0,4.1,0.2
		c-1,4.9-1.4,8.9-2.6,13.8h-1.2C590.2,115.8,587.9,128.4,587.9,143.4L587.9,143.4z"/>
	<path class="st4" d="M653.1,175.1c-17.8,0-23.7-8.4-23.7-27.6v-31.7H617l3.4-12.8h9V88.6l15.5-3.4v17.7h17.8v12.8h-17.8v32.1
		c0,13.3,3.2,15.4,19.1,14.2l-3.1,13.1L653.1,175.1L653.1,175.1z"/>
</g>
</svg>
